<?xml version="1.0" encoding="UTF-8"?>
<svg xmlns="http://www.w3.org/2000/svg" viewBox="0 0 700.77 287.88">
  <defs>
    <style>
      .cls-1 {
        stroke: #f3f3f3;
      }

      .cls-1, .cls-2, .cls-3, .cls-4, .cls-5, .cls-6, .cls-7, .cls-8, .cls-9, .cls-10, .cls-11, .cls-12, .cls-13, .cls-14, .cls-15, .cls-16, .cls-17, .cls-18, .cls-19 {
        fill: none;
        stroke-miterlimit: 10;
      }

      .cls-2 {
        stroke: #eaeaea;
      }

      .cls-3 {
        stroke: #f0f0f0;
      }

      .cls-4 {
        stroke: #eff0f0;
      }

      .cls-5 {
        stroke: #eeeeef;
      }

      .cls-20 {
        isolation: isolate;
      }

      .cls-6 {
        stroke: #f4f5f5;
      }

      .cls-7 {
        stroke: #ededed;
      }

      .cls-8 {
        stroke: #f1f1f1;
      }

      .cls-9 {
        stroke: #f1f1f2;
      }

      .cls-10 {
        stroke: #ebebeb;
      }

      .cls-21 {
        mix-blend-mode: screen;
      }

      .cls-11 {
        stroke: #ededee;
      }

      .cls-12 {
        stroke: #f5f6f6;
      }

      .cls-13 {
        stroke: #f2f2f2;
      }

      .cls-14 {
        stroke: #f3f4f4;
      }

      .cls-15 {
        stroke: #efefef;
      }

      .cls-16 {
        stroke: #f2f2f3;
      }

      .cls-17 {
        stroke: #eee;
      }

      .cls-18 {
        stroke: #f4f4f5;
      }

      .cls-19 {
        stroke: #ececec;
      }
    </style>
  </defs>
  <g class="cls-20">
    <g id="Layer_1">
      <g class="cls-21">
        <path class="cls-12" d="M.35,88.61c19.28-18.46,39.67-35.77,61.01-51.79,9.49-7.12,19.43-14.12,30.86-17.3,29.22-8.13,58.98,10.42,81.35,30.91,20.6,18.87,38.94,40.2,54.52,63.39,15.43,22.98,28.45,48.14,48.82,66.89,20.37,18.75,50.99,29.92,76.13,18.31,14.95-6.91,25.77-20.94,31.7-36.31,5.94-15.37,7.47-32.07,7.82-48.54.4-18.86-.43-38.75,8.58-55.32,9.33-17.15,29.21-27.95,48.68-26.45,27.69,2.14,48.11,25.44,68.28,44.53,25.62,24.26,56.84,44.55,91.86,48.91,35.01,4.36,73.91-10.41,90.38-41.62"/>
        <path class="cls-6" d="M2.63,96.38c18.94-18.17,39.03-35.11,60.11-50.71,9.37-6.94,19.17-13.73,30.41-16.86,22.57-6.29,45.48,3.21,65.04,17.06,5.33,3.77,10.41,7.87,15.17,12.05,20.47,18.01,38.79,38.49,54.43,60.84,15.51,22.15,28.59,46.56,48.81,64.73,11.34,10.19,25.49,18.34,40.23,22.04,12.84,3.22,26.2,2.99,38.32-2.4,2.17-.96,4.25-2.07,6.25-3.32,12.33-7.66,21.29-20.29,26.69-33.91,1.73-4.38,3.14-8.86,4.28-13.39,2.99-11.85,4.29-24.16,5.09-36.27,1.29-19.21,1.94-39.01,11.67-55.41s28.76-26.82,47.78-25.45c27.06,1.95,47.2,24.07,67.05,42.03,1.57,1.42,3.15,2.82,4.76,4.2,24.26,20.89,53,37.56,84.72,40.76,33.81,3.41,71.09-11.55,86.68-42.14"/>
        <path class="cls-18" d="M4.92,104.15c18.59-17.87,38.4-34.45,59.2-49.63,9.24-6.75,18.92-13.33,29.96-16.42,22.17-6.19,44.69,2.72,64.03,15.86,5.28,3.58,10.32,7.47,15.05,11.46,20.34,17.16,38.63,36.79,54.35,58.29,15.58,21.31,28.73,44.97,48.8,62.57,11.81,10.36,26.32,18.81,41.46,22.84,13.16,3.49,26.97,3.5,39.51-1.87,2.24-.96,4.41-2.07,6.48-3.33,12.81-7.76,22-20.79,27.7-34.81,1.83-4.5,3.33-9.1,4.58-13.75,3.27-12.14,5-24.73,6.34-37.04,2.17-19.57,4.28-39.25,14.76-55.5s28.32-25.69,46.89-24.45c26.43,1.77,46.28,22.7,65.82,39.52,1.54,1.33,3.1,2.64,4.68,3.93,23.85,19.52,51.83,34.76,82.42,37.07,32.61,2.46,68.27-12.68,82.97-42.65"/>
        <path class="cls-14" d="M7.2,111.91c18.25-17.57,37.77-33.8,58.29-48.56,9.12-6.56,18.66-12.94,29.51-15.98,21.77-6.1,43.91,2.23,63.02,14.67,5.22,3.39,10.22,7.08,14.93,10.87,20.21,16.3,38.47,35.08,54.26,55.74,15.65,20.47,28.9,43.36,48.79,60.41,12.29,10.53,27.14,19.29,42.7,23.63,13.49,3.76,27.75,4.01,40.69-1.34,2.32-.96,4.56-2.08,6.72-3.35,13.28-7.87,22.7-21.28,28.7-35.71,1.92-4.62,3.51-9.34,4.87-14.1,3.55-12.43,5.71-25.3,7.59-37.82,3.06-19.93,6.59-39.48,17.86-55.59,10.19-14.57,27.87-24.56,45.99-23.45,25.8,1.58,45.37,21.34,64.59,37.02,1.52,1.24,3.05,2.46,4.6,3.66,23.44,18.15,50.65,31.96,80.11,33.38,31.4,1.52,65.44-13.81,79.27-43.17"/>
        <path class="cls-1" d="M9.49,119.68c17.9-17.28,37.13-33.14,57.39-47.48,9-6.37,18.41-12.55,29.05-15.53,21.36-6,43.12,1.73,62.02,13.47,5.17,3.19,10.13,6.68,14.81,10.27,20.08,15.45,38.31,33.37,54.18,53.18,15.72,19.63,29.08,41.74,48.78,58.25,12.77,10.7,27.97,19.76,43.93,24.43,13.82,4.03,28.53,4.52,41.88-.81,2.4-.95,4.72-2.08,6.95-3.37,13.76-7.97,23.41-21.78,29.71-36.61,2.01-4.74,3.7-9.59,5.17-14.46,3.83-12.72,6.42-25.87,8.85-38.59,3.95-20.29,8.87-39.69,20.95-55.67,10.38-13.74,27.42-23.43,45.1-22.45,25.17,1.39,44.46,19.97,63.37,34.51,1.49,1.15,3,2.28,4.52,3.39,23.03,16.79,49.48,29.17,77.81,29.69,30.2.57,62.62-14.94,75.57-43.68"/>
        <path class="cls-16" d="M11.77,127.44c17.56-16.98,36.5-32.48,56.48-46.4,8.87-6.18,18.15-12.15,28.6-15.09,20.96-5.9,42.33,1.24,61.01,12.27,5.12,3,10.03,6.29,14.69,9.68,19.95,14.59,38.15,31.66,54.09,50.63,15.79,18.79,29.27,40.1,48.78,56.1,13.25,10.86,28.79,20.24,45.17,25.23,14.15,4.29,29.31,5.03,43.07-.28,2.47-.95,4.87-2.08,7.18-3.39,14.23-8.07,24.12-22.28,30.72-37.52,2.1-4.86,3.89-9.83,5.46-14.81,4.11-13.01,7.1-26.44,10.1-39.36,4.79-20.66,11.11-39.89,24.04-55.76,10.52-12.92,26.97-22.3,44.2-21.46,24.54,1.2,43.54,18.61,62.14,32.01,1.47,1.06,2.95,2.1,4.44,3.12,22.62,15.42,48.3,26.37,75.5,26,29-.38,59.8-16.07,71.87-44.2"/>
        <path class="cls-13" d="M14.05,135.21c17.21-16.69,35.87-31.83,55.57-45.32,8.75-6,17.89-11.76,28.15-14.65,20.56-5.8,41.54.75,60,11.07,5.06,2.81,9.94,5.9,14.57,9.09,19.83,13.73,37.99,29.95,54.01,48.08,15.86,17.96,29.47,38.46,48.77,53.94,13.75,11.02,29.62,20.71,46.4,26.03,14.48,4.56,30.09,5.53,44.26.25,2.55-.95,5.03-2.09,7.41-3.41,14.71-8.18,24.83-22.78,31.72-38.42,2.19-4.99,4.08-10.08,5.76-15.17,4.39-13.3,7.81-27.01,11.35-40.13,5.67-21.02,13.32-40.1,27.13-55.85,10.62-12.12,26.52-21.17,43.31-20.46,23.9,1.02,42.63,17.24,60.91,29.5,1.44.97,2.9,1.92,4.37,2.85,22.21,14.05,47.13,23.57,73.2,22.31,27.79-1.33,56.98-17.2,68.17-44.71"/>
        <path class="cls-9" d="M16.34,142.98c16.87-16.39,35.24-31.17,54.66-44.24,8.63-5.81,17.64-11.36,27.7-14.21,20.16-5.7,40.76.26,58.99,9.87,5.01,2.62,9.84,5.5,14.44,8.49,19.7,12.88,37.83,28.24,53.92,45.52,15.93,17.12,29.68,36.8,48.76,51.78,14.24,11.18,30.44,21.19,47.64,26.83,14.8,4.83,30.87,6.04,45.44.77,2.63-.95,5.18-2.09,7.65-3.43,15.18-8.28,25.54-23.27,32.73-39.32,2.28-5.11,4.27-10.32,6.05-15.52,4.68-13.59,8.52-27.58,12.61-40.91,6.56-21.38,15.5-40.31,30.22-55.94,10.68-11.34,26.07-20.05,42.41-19.46,23.27.83,41.71,15.88,59.68,27,1.42.88,2.85,1.74,4.29,2.58,21.8,12.69,45.95,20.78,70.9,18.63,26.59-2.28,54.15-18.33,64.47-45.23"/>
        <path class="cls-8" d="M18.62,150.74c16.53-16.1,34.6-30.51,53.76-43.17,8.5-5.62,17.38-10.97,27.25-13.77,19.76-5.6,39.95-.2,57.98,8.67,4.95,2.43,9.74,5.11,14.32,7.9,19.57,12.02,37.67,26.54,53.83,42.97,16,16.28,29.9,35.14,48.75,49.62,14.74,11.33,31.27,21.66,48.87,27.63,15.13,5.1,31.64,6.55,46.63,1.3,2.71-.94,5.34-2.09,7.88-3.45,15.66-8.38,26.25-23.77,33.74-40.22,2.37-5.23,4.45-10.57,6.35-15.88,4.96-13.88,9.23-28.15,13.86-41.68,7.44-21.74,17.63-40.54,33.31-56.03,10.71-10.58,25.62-18.92,41.52-18.46,22.64.64,40.8,14.51,58.46,24.49,1.39.79,2.8,1.56,4.21,2.31,21.39,11.32,44.77,17.98,68.59,14.94,25.39-3.23,51.33-19.46,60.77-45.75"/>
        <path class="cls-3" d="M20.91,158.51c16.18-15.8,33.97-29.86,52.85-42.09,8.38-5.43,17.13-10.58,26.79-13.32,19.36-5.5,39.16-.69,56.97,7.47,4.9,2.24,9.65,4.71,14.2,7.31,19.44,11.16,37.51,24.83,53.75,40.42,16.07,15.44,30.13,33.46,48.74,47.46,15.25,11.47,32.09,22.14,50.11,28.43,15.46,5.37,32.42,7.06,47.82,1.83,2.78-.94,5.49-2.1,8.11-3.47,16.13-8.49,26.96-24.27,34.74-41.12,2.47-5.35,4.64-10.81,6.65-16.23,5.24-14.17,9.94-28.72,15.11-42.45,8.33-22.1,19.74-40.79,36.41-56.12,10.7-9.84,25.17-17.79,40.62-17.46,22.01.46,39.89,13.14,57.23,21.99,1.37.7,2.75,1.38,4.13,2.03,20.98,9.96,43.6,15.18,66.29,11.25,24.18-4.18,48.51-20.59,57.07-46.26"/>
        <path class="cls-4" d="M23.19,166.28c15.84-15.51,33.34-29.2,51.94-41.01,8.26-5.24,16.87-10.18,26.34-12.88,18.96-5.4,38.38-1.18,55.97,6.27,4.84,2.05,9.55,4.32,14.08,6.72,19.31,10.31,37.35,23.12,53.66,37.87,16.14,14.6,30.36,31.77,48.73,45.3,15.76,11.61,32.91,22.61,51.34,29.23,15.79,5.64,33.2,7.56,49.01,2.36,2.86-.94,5.65-2.1,8.34-3.49,16.61-8.59,27.67-24.77,35.75-42.02,2.56-5.47,4.83-11.05,6.94-16.59,5.52-14.46,10.65-29.29,16.37-43.22,9.22-22.46,21.81-41.07,39.5-56.21,10.67-9.13,24.72-16.66,39.73-16.46,21.38.27,38.97,11.78,56,19.48,1.34.61,2.69,1.2,4.05,1.76,20.57,8.59,42.42,12.39,63.99,7.56,22.98-5.13,45.68-21.73,53.37-46.78"/>
        <path class="cls-15" d="M25.48,174.04c15.49-15.21,32.7-28.55,51.04-39.93,8.13-5.05,16.61-9.79,25.89-12.44,18.56-5.3,37.59-1.67,54.96,5.07,4.79,1.86,9.46,3.92,13.96,6.12,19.18,9.45,37.19,21.41,53.58,35.31,16.21,13.77,30.61,30.08,48.72,43.14,16.28,11.74,33.74,23.09,52.58,30.03,16.12,5.91,33.98,8.07,50.19,2.89,2.94-.94,5.8-2.1,8.57-3.51,17.08-8.69,28.38-25.26,36.76-42.92,2.65-5.59,5.02-11.3,7.24-16.94,5.8-14.75,11.36-29.86,17.62-43.99,10.1-22.81,23.84-41.38,42.59-56.3,10.61-8.45,24.28-15.53,38.83-15.47,20.75.08,38.06,10.41,54.77,16.98,1.32.52,2.64,1.02,3.98,1.49,20.16,7.22,41.25,9.59,61.68,3.87,21.78-6.07,42.86-22.86,49.66-47.29"/>
        <path class="cls-5" d="M27.76,181.81c15.15-14.91,32.07-27.89,50.13-38.85,8.01-4.87,16.36-9.39,25.44-12,18.16-5.2,36.8-2.16,53.95,3.87,4.73,1.66,9.36,3.53,13.84,5.53,19.05,8.59,37.03,19.7,53.49,32.76,16.28,12.93,30.85,28.38,48.71,40.98,16.8,11.86,34.56,23.56,53.81,30.82,16.45,6.18,34.76,8.58,51.38,3.42,3.02-.93,5.96-2.11,8.81-3.53,17.56-8.8,29.09-25.76,37.76-43.82,2.74-5.72,5.21-11.54,7.53-17.3,6.08-15.04,12.1-30.42,18.88-44.77,11.04-23.15,25.84-41.73,45.68-56.39,10.54-7.78,23.83-14.4,37.94-14.47,20.12-.1,37.14,9.05,53.54,14.47,1.29.43,2.59.84,3.9,1.22,19.74,5.86,40.07,6.79,59.38.18,20.57-7.02,40.04-23.99,45.96-47.81"/>
        <path class="cls-17" d="M30.05,189.58c14.81-14.62,31.44-27.23,49.22-37.78,7.89-4.68,16.1-9,24.98-11.55,17.76-5.11,36.02-2.65,52.94,2.67,4.68,1.47,9.27,3.14,13.71,4.94,18.92,7.74,36.87,17.99,53.4,30.21,16.35,12.09,31.11,26.67,48.71,38.82,17.33,11.97,35.39,24.04,55.05,31.62,16.77,6.45,35.53,9.09,52.57,3.95,3.09-.93,6.11-2.11,9.04-3.55,18.03-8.9,29.8-26.26,38.77-44.72,2.83-5.84,5.4-11.79,7.83-17.65,6.36-15.33,12.81-30.99,20.13-45.54,11.92-23.51,27.8-42.14,48.77-56.48,10.45-7.14,23.38-13.27,37.04-13.47,19.48-.29,36.23,7.68,52.32,11.97,1.27.34,2.54.66,3.82.95,19.33,4.49,38.9,3.99,57.08-3.51,19.37-7.97,37.22-25.12,42.26-48.32"/>
        <path class="cls-11" d="M32.33,197.34c14.46-14.32,30.81-26.58,48.31-36.7,7.77-4.49,15.85-8.61,24.53-11.11,17.35-5.01,35.23-3.14,51.93,1.47,4.63,1.28,9.17,2.74,13.59,4.34,18.79,6.88,36.71,16.29,53.32,27.65,16.42,11.25,31.37,24.95,48.7,36.66s36.21,24.51,56.28,32.42c17.1,6.72,36.31,9.6,53.75,4.48,3.17-.93,6.27-2.11,9.27-3.57,18.51-9,30.51-26.76,39.78-45.62,2.92-5.96,5.58-12.03,8.12-18.01,6.64-15.62,13.52-31.55,21.38-46.31,12.81-23.87,29.74-42.61,51.86-56.56,10.35-6.53,22.93-12.14,36.15-12.47,18.85-.48,35.32,6.32,51.09,9.46,1.24.25,2.49.48,3.74.68,18.92,3.12,37.72,1.2,54.77-7.2,18.16-8.92,34.39-26.25,38.56-48.84"/>
        <path class="cls-7" d="M34.62,205.11c14.12-14.03,30.17-25.92,47.41-35.62,7.64-4.3,15.59-8.21,24.08-10.67,16.95-4.91,34.45-3.64,50.92.27,4.57,1.08,9.08,2.35,13.47,3.75,18.66,6.02,36.55,14.58,53.23,25.1,16.49,10.42,31.63,23.23,48.69,34.5,18.41,12.17,37.04,24.99,57.52,33.22,17.43,6.99,37.09,10.1,54.94,5.01,3.25-.92,6.42-2.12,9.5-3.59,18.98-9.11,31.22-27.25,40.78-46.52,3.01-6.08,5.77-12.28,8.42-18.36,6.93-15.91,14.23-32.12,22.64-47.08,13.7-24.23,31.65-43.15,54.96-56.65,10.25-5.94,22.48-11.01,35.25-11.47,18.22-.66,34.4,4.95,49.86,6.96,1.22.16,2.44.3,3.66.41,18.51,1.76,36.55-1.6,52.47-10.88,16.96-9.87,31.57-27.38,34.86-49.35"/>
        <path class="cls-19" d="M36.9,212.87c13.77-13.73,29.54-25.26,46.5-34.54,7.52-4.11,15.33-7.82,23.63-10.23,16.55-4.81,33.66-4.13,49.91-.93,4.52.89,8.98,1.95,13.35,3.16,18.53,5.17,36.39,12.87,53.15,22.55,16.56,9.58,31.89,21.49,48.68,32.34,18.96,12.25,37.86,25.46,58.75,34.02,17.76,7.26,37.87,10.61,56.13,5.53,3.32-.92,6.58-2.12,9.73-3.61,19.46-9.21,31.93-27.75,41.79-47.42,3.11-6.2,5.96-12.52,8.72-18.72,7.21-16.2,14.94-32.69,23.89-47.86,14.58-24.58,33.53-43.76,58.05-56.74,10.14-5.37,22.03-9.88,34.36-10.48,17.59-.85,33.49,3.59,48.63,4.45,1.2.07,2.39.12,3.59.14,18.1.39,35.37-4.4,50.17-14.57,15.76-10.82,28.75-28.51,31.16-49.87"/>
        <path class="cls-19" d="M39.19,220.64c13.43-13.44,28.91-24.61,45.59-33.46,7.4-3.93,15.08-7.42,23.18-9.78,16.15-4.71,32.88-4.63,48.91-2.13,4.47.7,8.88,1.56,13.23,2.56,18.41,4.31,36.23,11.16,53.06,20,16.63,8.74,32.16,19.76,48.67,30.18,19.51,12.32,38.69,25.94,59.99,34.82,18.09,7.53,38.65,11.12,57.32,6.06,3.4-.92,6.73-2.12,9.97-3.63,19.94-9.31,32.64-28.25,42.8-48.33,3.2-6.33,6.15-12.77,9.01-19.07,7.49-16.49,15.65-33.26,25.14-48.63,15.47-24.94,35.39-44.46,61.14-56.83,10.03-4.82,21.58-8.75,33.47-9.48,16.96-1.04,32.58,2.22,47.41,1.95,1.17-.02,2.34-.06,3.51-.13,17.69-.97,34.19-7.19,47.86-18.26,14.55-11.77,25.92-29.64,27.46-50.38"/>
        <path class="cls-10" d="M41.47,228.41c13.08-13.14,28.27-23.95,44.69-32.39,7.27-3.74,14.82-7.03,22.72-9.34,15.75-4.61,32.1-5.15,47.9-3.33,4.41.49,8.79,1.17,13.1,1.97,18.28,3.46,36.07,9.45,52.98,17.44,16.7,7.9,32.43,18.01,48.66,28.02,20.07,12.38,39.51,26.41,61.22,35.62,18.42,7.8,39.43,11.63,58.5,6.59,3.48-.92,6.89-2.13,10.2-3.65,20.41-9.42,33.35-28.75,43.8-49.23,3.29-6.45,6.34-13.01,9.31-19.43,7.77-16.78,16.36-33.83,26.4-49.4,16.35-25.3,37.24-45.25,64.23-56.92,9.93-4.29,21.13-7.63,32.57-8.48,16.33-1.22,31.66.85,46.18-.56,1.15-.11,2.29-.24,3.43-.4,17.28-2.34,33.02-9.99,45.56-21.95,13.35-12.72,23.1-30.77,23.76-50.9"/>
        <path class="cls-10" d="M43.76,236.17c12.74-12.85,27.64-23.3,43.78-31.31,7.15-3.55,14.57-6.64,22.27-8.9,15.35-4.51,31.31-5.65,46.89-4.53,4.36.3,8.69.77,12.98,1.38,18.15,2.6,35.91,7.74,52.89,14.89,16.77,7.06,32.7,16.26,48.65,25.86,20.63,12.42,40.34,26.89,62.46,36.42,18.74,8.06,40.2,12.14,59.69,7.12,3.56-.91,7.04-2.13,10.43-3.67,20.89-9.52,34.06-29.24,44.81-50.13,3.38-6.57,6.52-13.25,9.6-19.78,8.05-17.07,17.07-34.4,27.65-50.17,17.24-25.66,39.08-46.14,67.32-57.01,9.85-3.79,20.69-6.5,31.68-7.48,15.7-1.41,30.75-.51,44.95-3.07,1.12-.2,2.24-.42,3.35-.67,16.87-3.71,31.84-12.79,43.26-25.64,12.15-13.66,20.28-31.91,20.06-51.41"/>
        <path class="cls-2" d="M46.04,243.94c12.4-12.55,27.01-22.64,42.87-30.23,7.03-3.36,14.31-6.24,21.82-8.46,14.95-4.41,30.52-6.14,45.88-5.73,4.31.11,8.6.38,12.86.79,18.02,1.74,35.75,6.04,52.8,12.34,16.84,6.23,32.97,14.5,48.64,23.7,21.21,12.45,41.16,27.36,63.69,37.22,19.07,8.33,40.98,12.64,60.88,7.65,3.63-.91,7.2-2.13,10.66-3.69,21.36-9.62,34.77-29.74,45.82-51.03,3.47-6.69,6.71-13.5,9.9-20.14,8.33-17.36,17.78-34.97,28.9-50.94,18.13-26.02,40.92-47.13,70.41-57.1,9.77-3.3,20.24-5.37,30.78-6.48,15.06-1.6,29.83-1.88,43.72-5.57,1.1-.29,2.19-.6,3.28-.94,16.46-5.07,30.67-15.58,40.95-29.33,10.94-14.61,17.46-33.04,16.35-51.93"/>
        <path class="cls-2" d="M48.33,251.71c28-28.48,68.27-43.31,108.2-44.1,39.93-.79,79.42,11.69,114.09,31.52,21.79,12.46,41.98,27.84,64.93,38.02,22.94,10.18,50.03,14.68,72.96,4.46,28.69-12.78,43.24-44.19,57.02-72.42,22.65-46.43,54.07-94.45,103.66-108.9,24.7-7.2,51.7-5.19,75.58-14.77,33.11-13.29,55.14-49.99,51.3-85.46"/>
      </g>
    </g>
  </g>
</svg>